<!-- Generated by IcoMoon.io -->
<svg version="1.1" xmlns="http://www.w3.org/2000/svg" width="32" height="32" viewBox="0 0 32 32">
<title>finger</title>
<path fill="#fff" d="M26.666 12c-0.492 0-0.952 0.134-1.35 0.368-0.157-1.338-1.283-2.367-2.65-2.368h-0c-0.65 0-1.248 0.236-1.714 0.628-0.474-0.78-1.32-1.294-2.286-1.294-0.491 0-0.952 0.133-1.347 0.365l0.013-0.007v-7.026c0.002-1.47-1.192-2.666-2.664-2.666s-2.668 1.196-2.668 2.666v17.844c0 0.334-0.22 0.508-0.316 0.566-0.099 0.063-0.221 0.101-0.351 0.101-0.108 0-0.211-0.026-0.301-0.073l0.004 0.002-4.282-2.14c-0.367-0.187-0.801-0.296-1.26-0.296-1.56 0-2.825 1.263-2.828 2.822v0.508c0 0.184 0.078 0.36 0.212 0.488l7.696 7.18c1.54 1.445 3.619 2.332 5.904 2.332 0.002 0 0.004 0 0.006 0h4.18c4.785-0.005 8.662-3.881 8.668-8.665v-8.669c0-1.47-1.196-2.666-2.668-2.666zM28 23.334c-0.005 4.048-3.286 7.329-7.334 7.332h-4.18c-1.862 0-3.64-0.7-5.002-1.972l-7.484-6.984v-0.22c0.002-0.823 0.669-1.489 1.492-1.489 0.243 0 0.472 0.058 0.675 0.161l-0.008-0.004 4.28 2.14c0.626 0.314 1.354 0.28 1.946-0.086 0.574-0.355 0.95-0.982 0.95-1.695 0-0.002 0-0.005 0-0.007v0-17.844c0.048-0.698 0.627-1.247 1.333-1.247s1.285 0.548 1.333 1.242l0 0.004v10c0 0.368 0.299 0.667 0.667 0.667s0.667-0.299 0.667-0.667v0-0.666c0.048-0.698 0.627-1.247 1.333-1.247s1.285 0.548 1.333 1.242l0 0.004v0.67c0.021 0.352 0.311 0.63 0.667 0.63 0.357 0 0.648-0.28 0.667-0.632l0-0.002v-0.010c0.051-0.696 0.628-1.242 1.333-1.242 0.708 0 1.288 0.551 1.333 1.248l0 0.004v2c0 0.368 0.299 0.667 0.667 0.667s0.667-0.299 0.667-0.667v0c0.029-0.714 0.614-1.282 1.333-1.282s1.304 0.568 1.333 1.28l0 0.003v8.668z"></path>
</svg>
